#!OML:ASF F:\VICON\USERDATA\INSTALL\rory3\rory3.ASF
:FULLY-SPECIFIED
:DEGREES
2545
root 0.0913169 17.3789 -0.294454 1.77544 -2.84306 -2.94355
lowerback -3.12007 -1.54605 0.237222
upperback -3.60448 -2.04856 1.45713
thorax -1.90558 -1.01243 1.33286
lowerneck -13.1674 -9.87552 -12.9219
upperneck 23.0953 -15.0998 15.0354
head 11.9604 -6.46408 5.3919
rclavicle -2.39784e-015 2.68359e-015
rhumerus -399.727 -5.05006 -435.373
rradius 38.8689
rwrist 7.89752
rhand -16.4075 11.536
rfingers 7.12502
rthumb 9.80697 -18.2156
lclavicle -2.39784e-015 2.68359e-015
lhumerus -24.2378 13.6581 89.4363
lradius 9.01967
lwrist -31.6
lhand -5.94207 24.7681
lfingers 7.12502
lthumb 19.888 53.7705
rfemur 3.91571 8.54357 22.2579
rtibia 4.01526
rfoot -8.6465 -7.0284
rtoes -13.2176
lfemur -3.84158 -14.3216 -16.4179
ltibia 19.5039
lfoot -17.3455 11.4465
ltoes -15.9904
2546
root 0.0852878 17.3781 -0.294332 1.59004 -2.41319 -2.77288
lowerback -3.02483 -1.48385 -0.110963
upperback -3.55907 -1.96123 1.33893
thorax -1.9063 -0.962309 1.4095
lowerneck -13.1958 -10.0301 -13.0286
upperneck 23.1615 -15.3166 15.0632
head 12.0424 -6.56377 5.37971
rclavicle -8.83505e-015 -9.47333e-015
rhumerus -399.796 -4.88088 -435.685
rradius 39.0267
rwrist 9.54209
rhand -15.4713 11.3402
rfingers 7.12502
rthumb 10.7102 -18.3668
lclavicle -8.83505e-015 -9.47333e-015
lhumerus -24.7447 13.1576 89.3624
lradius 10.4341
lwrist -31.0222
lhand -4.92997 24.5552
lfingers 7.12502
lthumb 20.8607 53.4537
rfemur 4.3017 8.1526 22.1218
rtibia 3.7523
rfoot -8.64666 -7.02393
rtoes -13.0976
lfemur -3.76043 -14.4281 -16.5796
ltibia 19.5459
lfoot -17.5242 11.1394
ltoes -15.4094
2547
root 0.0811088 17.3766 -0.290965 1.41519 -1.87472 -2.60921
lowerback -3.02047 -1.4426 -0.474148
upperback -3.44614 -1.90219 1.26152
thorax -1.78485 -0.926582 1.53209
lowerneck -13.2829 -10.2304 -13.1678
upperneck 23.1644 -15.5607 15.0452
head 12.1151 -6.68073 5.34456
rclavicle 8.8894e-015 -8.52289e-015
rhumerus -399.88 -4.54247 -436.118
rradius 39.264
rwrist 10.9652
rhand -15.3395 11.581
rfingers 7.12502
rthumb 10.8373 -18.1194
lclavicle 8.8894e-015 -8.52289e-015
lhumerus -25.2337 12.6177 89.3147
lradius 12.033
lwrist -30.3857
lhand -4.29017 23.6732
lfingers 7.12502
lthumb 21.4753 52.5028
rfemur 4.65382 7.65488 21.9783
rtibia 3.60135
rfoot -8.68788 -7.04061
rtoes -13.7522
lfemur -3.67446 -14.5732 -16.7397
ltibia 19.5656
lfoot -17.453 10.9109
ltoes -16.524
2548
root 0.0748869 17.3727 -0.289482 1.19753 -1.29576 -2.73763
lowerback -2.99086 -1.41765 -0.566086
upperback -3.26948 -1.86799 1.28574
thorax -1.61687 -0.908898 1.60647
lowerneck -13.4421 -10.3891 -13.2891
upperneck 23.1415 -15.7336 15.0273
head 12.1788 -6.76067 5.31613
rclavicle 1.30204e-014 -1.29707e-014
rhumerus -400.001 -3.93081 -436.749
rradius 39.7516
rwrist 12.0656
rhand -15.5343 11.8057
rfingers 7.12502
rthumb 10.6494 -17.9044
lclavicle 1.30204e-014 -1.29707e-014
lhumerus -25.7469 12.0767 89.2017
lradius 13.8694
lwrist -29.8394
lhand -3.10096 22.8763
lfingers 7.12502
lthumb 22.6171 51.5712
rfemur 5.05985 7.12116 22.1728
rtibia 3.44364
rfoot -8.71849 -7.08947
rtoes -14.1458
lfemur -3.56429 -14.7472 -16.5831
ltibia 19.6213
lfoot -17.4319 10.4342
ltoes -16.007
2549
root 0.066703 17.37 -0.293283 1.04915 -0.667935 -2.81817
lowerback -2.95385 -1.44081 -0.687985
upperback -3.11696 -1.89747 1.29476
thorax -1.47556 -0.922715 1.68164
lowerneck -13.6674 -10.516 -13.4934
upperneck 23.1276 -15.8642 15.1142
head 12.2715 -6.81447 5.34782
rclavicle -1.5996e-014 1.08338e-014
rhumerus -400.07 -3.30603 -437.426
rradius 40.3222
rwrist 13.3254
rhand -15.6104 11.9856
rfingers 7.12502
rthumb 10.576 -17.7283
lclavicle -1.5996e-014 1.08338e-014
lhumerus -26.3729 11.604 88.9948
lradius 16.0292
lwrist -29.3485
lhand -1.96883 22.0888
lfingers 7.12502
lthumb 23.7033 50.6472
rfemur 5.42518 6.53928 22.2979
rtibia 3.16637
rfoot -8.69863 -7.06896
rtoes -13.3839
lfemur -3.61286 -14.9421 -16.4319
ltibia 19.7475
lfoot -17.3994 9.95386
ltoes -15.5359
2550
root 0.0594399 17.3684 -0.300641 0.983954 -0.177527 -2.94121
lowerback -2.90278 -1.44695 -0.777698
upperback -3.02028 -1.90415 1.35225
thorax -1.39976 -0.924787 1.79037
lowerneck -13.8902 -10.643 -13.678
upperneck 23.1339 -15.9674 15.0859
head 12.3527 -6.86592 5.33691
rclavicle 1.55238e-014 6.26172e-015
rhumerus -400.147 -2.51085 -438.116
rradius 41.0347
rwrist 14.2346
rhand -15.3199 12.1907
rfingers 7.12502
rthumb 10.8562 -17.5087
lclavicle 1.55238e-014 6.26172e-015
lhumerus -26.6962 6.85254 90.994
lradius 18.352
lwrist -24.177
lhand -1.76977 22.1264
lfingers 7.12502
lthumb 23.8942 50.6599
rfemur 5.79249 6.09829 22.4326
rtibia 2.62232
rfoot -8.49651 -7.01632
rtoes -12.7582
lfemur -3.79872 -15.0964 -16.2213
ltibia 19.9558
lfoot -17.3882 9.76112
ltoes -16.4577
